<?xml version="1.0" encoding="iso-8859-1"?>
<!-- Generator: Adobe Illustrator 18.0.0, SVG Export Plug-In . SVG Version: 6.00 Build 0)  -->
<!DOCTYPE svg PUBLIC "-//W3C//DTD SVG 1.1//EN" "http://www.w3.org/Graphics/SVG/1.1/DTD/svg11.dtd">
<svg version="1.1" id="Capa_1" xmlns="http://www.w3.org/2000/svg" xmlns:xlink="http://www.w3.org/1999/xlink" x="0px" y="0px"
	 viewBox="0 0 325 325" style="enable-background:new 0 0 325 325;" xml:space="preserve">
<path d="M284.5,222h-24V47c0-3.313-2.686-6-6-6h-66V6c0-3.313-2.687-6-6-6h-40c-3.314,0-6,2.687-6,6v35h-66c-3.314,0-6,2.687-6,6
	v175h-24c-3.314,0-6,2.686-6,6v33c0,3.314,2.686,6,6,6h30.164l-23.799,49.396c-0.896,1.859-0.773,4.049,0.324,5.796
	C48.288,323.94,50.207,325,52.27,325h39.408c2.305,0,4.405-1.319,5.405-3.396L123.391,267h78.219l26.307,54.604
	c1,2.076,3.101,3.396,5.405,3.396h39.408c2.064,0,3.982-1.06,5.081-2.809c1.098-1.747,1.22-3.936,0.324-5.796L254.336,267H284.5
	c3.314,0,6-2.686,6-6v-33C290.5,224.686,287.814,222,284.5,222z M148.5,12h28v29h-28V12z M76.5,53h66h40h66v169h-172V53z
	 M87.909,313H61.821l22.163-46h26.086L87.909,313z M263.179,313h-26.088l-22.161-46h26.086L263.179,313z M278.5,255h-33.715h-39.406
	h-85.758H80.215H46.5v-21h24h184h24V255z"/>
<g>
</g>
<g>
</g>
<g>
</g>
<g>
</g>
<g>
</g>
<g>
</g>
<g>
</g>
<g>
</g>
<g>
</g>
<g>
</g>
<g>
</g>
<g>
</g>
<g>
</g>
<g>
</g>
<g>
</g>
</svg>
