<?xml version="1.0" encoding="iso-8859-1"?>
<!-- Generator: Adobe Illustrator 18.0.0, SVG Export Plug-In . SVG Version: 6.00 Build 0)  -->
<!DOCTYPE svg PUBLIC "-//W3C//DTD SVG 1.1//EN" "http://www.w3.org/Graphics/SVG/1.1/DTD/svg11.dtd">
<svg version="1.1" id="Capa_1" xmlns="http://www.w3.org/2000/svg" xmlns:xlink="http://www.w3.org/1999/xlink" x="0px" y="0px"
	 viewBox="0 0 324.973 324.973" style="enable-background:new 0 0 324.973 324.973;" xml:space="preserve">
<path d="M309.588,92.45c-16.017-24.299-40.978-37.143-72.184-37.143c-28.069,0-55.47,10.212-71.754,19.77l-4.748,2.78
	c-5.824,3.406-13.33,7.795-21.893,12.918c-9.984-10.212-29.437-19.254-40.632-21.565c-2.012-0.412-4.1,0.229-5.528,1.707
	L74.25,90.169c-1.438,1.489-2.008,3.615-1.505,5.625c0.502,2.009,2.005,3.616,3.976,4.253l30.964,10.005
	c-37.04,23.526-79.149,53.257-96.335,77.284c-9.486,13.263-13.053,26.197-10.599,38.445c4.347,21.699,26.706,35.547,38.718,42.985
	c0.972,0.602,2.066,0.899,3.158,0.899c1.294,0,2.582-0.417,3.655-1.241c67.693-51.983,163.283-59.746,214.238-59.746
	c22.511,0,37.017,1.521,37.161,1.537c2.073,0.219,4.108-0.646,5.382-2.292c0.457-0.59,11.267-14.695,17.549-35.873
	C329.028,143.681,325.215,116.155,309.588,92.45z M89.566,91.587l9.526-9.86c10.506,2.92,22.481,9.674,29.235,15.496
	c-2.402,1.463-4.857,2.968-7.357,4.512L89.566,91.587z M309.221,168.254c-4.135,14.14-10.653,24.97-13.811,29.706
	c-5.722-0.47-18.042-1.281-34.89-1.281c-25.082,0-63.504,1.873-104.11,10.797c-45.242,9.941-83.603,26.392-114.102,48.921
	c-11.238-7.085-26.791-18-29.791-32.973c-1.775-8.86,1.116-18.653,8.593-29.107c25.591-35.777,112.959-86.867,145.85-106.101
	l4.765-2.789c14.241-8.358,39.987-18.119,65.68-18.119c27.363,0,48.279,10.681,62.165,31.747
	C313.307,119.893,316.554,143.174,309.221,168.254z"/>
<g>
</g>
<g>
</g>
<g>
</g>
<g>
</g>
<g>
</g>
<g>
</g>
<g>
</g>
<g>
</g>
<g>
</g>
<g>
</g>
<g>
</g>
<g>
</g>
<g>
</g>
<g>
</g>
<g>
</g>
</svg>
