<?xml version="1.0" encoding="iso-8859-1"?>
<!-- Generator: Adobe Illustrator 18.0.0, SVG Export Plug-In . SVG Version: 6.00 Build 0)  -->
<!DOCTYPE svg PUBLIC "-//W3C//DTD SVG 1.1//EN" "http://www.w3.org/Graphics/SVG/1.1/DTD/svg11.dtd">
<svg version="1.1" id="Capa_1" xmlns="http://www.w3.org/2000/svg" xmlns:xlink="http://www.w3.org/1999/xlink" x="0px" y="0px"
	 viewBox="0 0 325 325" style="enable-background:new 0 0 325 325;" xml:space="preserve">
<g>
	<path d="M101.202,87.447h122.595c3.313,0,6-2.687,6-6V40.435c0-3.313-2.687-6-6-6H101.202c-3.313,0-6,2.687-6,6v41.013
		C95.202,84.761,97.889,87.447,101.202,87.447z M107.202,46.435h110.595v29.013H107.202V46.435z"/>
	<path d="M102.934,140.527c-11.191,0-20.296,8.843-20.296,19.713c0,10.87,9.104,19.714,20.296,19.714
		c11.189,0,20.293-8.844,20.293-19.714C123.227,149.37,114.123,140.527,102.934,140.527z M102.934,167.954
		c-4.574,0-8.296-3.46-8.296-7.714c0-4.253,3.722-7.713,8.296-7.713c4.573,0,8.293,3.46,8.293,7.713
		C111.227,164.494,107.507,167.954,102.934,167.954z"/>
	<path d="M162.5,140.527c-11.191,0-20.297,8.843-20.297,19.713c0,10.87,9.105,19.714,20.297,19.714
		c11.19,0,20.295-8.844,20.295-19.714C182.795,149.37,173.69,140.527,162.5,140.527z M162.5,167.954
		c-4.575,0-8.297-3.46-8.297-7.714c0-4.253,3.722-7.713,8.297-7.713c4.574,0,8.295,3.46,8.295,7.713
		C170.795,164.494,167.074,167.954,162.5,167.954z"/>
	<path d="M222.066,140.527c-11.19,0-20.295,8.843-20.295,19.713c0,10.87,9.105,19.714,20.295,19.714
		c11.191,0,20.296-8.844,20.296-19.714C242.362,149.37,233.258,140.527,222.066,140.527z M222.066,167.954
		c-4.574,0-8.295-3.46-8.295-7.714c0-4.253,3.721-7.713,8.295-7.713c4.574,0,8.296,3.46,8.296,7.713
		C230.362,164.494,226.641,167.954,222.066,167.954z"/>
	<path d="M102.934,197.469c-11.191,0-20.296,8.843-20.296,19.713c0,10.87,9.104,19.713,20.296,19.713
		c11.189,0,20.293-8.843,20.293-19.713C123.227,206.311,114.123,197.469,102.934,197.469z M102.934,224.895
		c-4.574,0-8.296-3.46-8.296-7.713c0-4.253,3.722-7.713,8.296-7.713c4.573,0,8.293,3.46,8.293,7.713
		C111.227,221.435,107.507,224.895,102.934,224.895z"/>
	<path d="M162.5,197.469c-11.191,0-20.297,8.843-20.297,19.711c0,10.871,9.105,19.715,20.297,19.715
		c11.19,0,20.295-8.844,20.295-19.715C182.795,206.311,173.69,197.469,162.5,197.469z M162.5,224.895
		c-4.575,0-8.297-3.461-8.297-7.715c0-4.252,3.722-7.711,8.297-7.711c4.574,0,8.295,3.459,8.295,7.711
		C170.795,221.434,167.074,224.895,162.5,224.895z"/>
	<path d="M222.066,197.469c-11.19,0-20.295,8.843-20.295,19.713c0,10.87,9.105,19.713,20.295,19.713
		c11.191,0,20.296-8.843,20.296-19.713C242.362,206.311,233.258,197.469,222.066,197.469z M222.066,224.895
		c-4.574,0-8.295-3.46-8.295-7.713c0-4.253,3.721-7.713,8.295-7.713c4.574,0,8.296,3.46,8.296,7.713
		C230.362,221.435,226.641,224.895,222.066,224.895z"/>
	<path d="M102.934,254.41c-11.191,0-20.296,8.844-20.296,19.714c0,10.869,9.104,19.712,20.296,19.712
		c11.189,0,20.293-8.843,20.293-19.712C123.227,263.254,114.123,254.41,102.934,254.41z M102.934,281.836
		c-4.574,0-8.296-3.46-8.296-7.712c0-4.254,3.722-7.714,8.296-7.714c4.573,0,8.293,3.46,8.293,7.714
		C111.227,278.376,107.507,281.836,102.934,281.836z"/>
	<path d="M162.5,254.41c-11.191,0-20.297,8.844-20.297,19.714c0,10.869,9.105,19.712,20.297,19.712
		c11.19,0,20.295-8.843,20.295-19.712C182.795,263.254,173.69,254.41,162.5,254.41z M162.5,281.836c-4.575,0-8.297-3.46-8.297-7.712
		c0-4.254,3.722-7.714,8.297-7.714c4.574,0,8.295,3.46,8.295,7.714C170.795,278.376,167.074,281.836,162.5,281.836z"/>
	<path d="M222.066,254.41c-11.19,0-20.295,8.844-20.295,19.714c0,10.869,9.105,19.712,20.295,19.712
		c11.191,0,20.296-8.843,20.296-19.712C242.362,263.254,233.258,254.41,222.066,254.41z M222.066,281.836
		c-4.574,0-8.295-3.46-8.295-7.712c0-4.254,3.721-7.714,8.295-7.714c4.574,0,8.296,3.46,8.296,7.714
		C230.362,278.376,226.641,281.836,222.066,281.836z"/>
	<path d="M264.463,0H60.537c-3.313,0-6,2.687-6,6v313c0,3.314,2.687,6,6,6h203.926c3.314,0,6-2.686,6-6V6
		C270.463,2.687,267.776,0,264.463,0z M258.463,12v97.883H66.537V12H258.463z M66.537,313V121.883h191.926V313H66.537z"/>
</g>
<g>
</g>
<g>
</g>
<g>
</g>
<g>
</g>
<g>
</g>
<g>
</g>
<g>
</g>
<g>
</g>
<g>
</g>
<g>
</g>
<g>
</g>
<g>
</g>
<g>
</g>
<g>
</g>
<g>
</g>
</svg>
