<?xml version="1.0" encoding="iso-8859-1"?>
<!-- Generator: Adobe Illustrator 18.0.0, SVG Export Plug-In . SVG Version: 6.00 Build 0)  -->
<!DOCTYPE svg PUBLIC "-//W3C//DTD SVG 1.1//EN" "http://www.w3.org/Graphics/SVG/1.1/DTD/svg11.dtd">
<svg version="1.1" id="Capa_1" xmlns="http://www.w3.org/2000/svg" xmlns:xlink="http://www.w3.org/1999/xlink" x="0px" y="0px"
	 viewBox="0 0 325.001 325.001" style="enable-background:new 0 0 325.001 325.001;" xml:space="preserve">
<path d="M325.001,76.058c0-1.591-0.632-3.117-1.758-4.242l-49.692-49.692c-1.125-1.126-2.651-1.758-4.242-1.758
	s-3.117,0.632-4.242,1.758l-15.47,15.47C222.109,13.279,187.108,0,150.234,0c-0.549,0-1.102,0.003-1.65,0.009
	C109.08,0.433,71.936,16.054,43.995,43.995C16.054,71.935,0.433,109.078,0.009,148.583c-0.401,37.479,12.909,73.116,37.584,101.014
	l-15.47,15.47c-2.344,2.343-2.344,6.142-0.001,8.484l49.691,49.692c1.126,1.126,2.651,1.758,4.243,1.758
	c1.591,0,3.117-0.632,4.242-1.758l34.736-34.736c0.092-0.081,0.193-0.143,0.281-0.229c0.088-0.089,0.15-0.191,0.232-0.284
	l33.147-33.147c0.562-0.281,1.098-0.629,1.566-1.097c0.471-0.47,0.821-1.009,1.103-1.573l66.631-66.63
	c0.484-0.267,0.951-0.579,1.362-0.989c0.413-0.412,0.728-0.881,0.995-1.368l31.887-31.888c0.447-0.257,0.877-0.553,1.259-0.934
	c0.385-0.384,0.683-0.816,0.94-1.266l32.852-32.852c0.412-0.247,0.809-0.529,1.164-0.884c0.357-0.356,0.642-0.756,0.891-1.17
	L323.243,80.3C324.369,79.175,325.001,77.649,325.001,76.058z M12.009,148.712c0.39-36.348,14.763-70.523,40.471-96.231
	c25.709-25.709,59.886-40.082,96.233-40.472c34.194-0.36,66.797,11.698,92.384,34.084L209.649,77.54
	c-0.264-0.217-0.531-0.427-0.798-0.64c-0.547-0.439-1.085-0.892-1.641-1.316c-0.776-0.596-1.572-1.159-2.365-1.728
	c-0.402-0.289-0.795-0.591-1.201-0.872c-0.88-0.611-1.778-1.19-2.676-1.769c-0.332-0.215-0.657-0.441-0.992-0.65
	c-0.94-0.59-1.898-1.148-2.857-1.702c-0.307-0.177-0.606-0.365-0.915-0.539c-0.971-0.546-1.956-1.062-2.944-1.571
	c-0.311-0.161-0.616-0.332-0.929-0.489c-0.976-0.49-1.964-0.949-2.954-1.404c-0.341-0.156-0.677-0.323-1.02-0.476
	c-0.956-0.425-1.925-0.82-2.895-1.213c-0.393-0.159-0.781-0.328-1.176-0.481c-0.92-0.358-1.85-0.688-2.779-1.016
	c-0.462-0.163-0.92-0.335-1.385-0.491c-0.869-0.291-1.747-0.557-2.625-0.822c-0.541-0.164-1.079-0.335-1.623-0.489
	c-0.813-0.229-1.631-0.435-2.449-0.643c-0.625-0.159-1.247-0.323-1.875-0.469c-0.754-0.175-1.514-0.329-2.273-0.485
	c-0.703-0.146-1.404-0.293-2.112-0.422c-0.701-0.128-1.407-0.237-2.112-0.349c-0.773-0.123-1.546-0.247-2.324-0.351
	c-0.662-0.088-1.327-0.159-1.992-0.233c-0.822-0.093-1.645-0.183-2.471-0.253c-0.647-0.056-1.299-0.095-1.949-0.138
	c-0.839-0.054-1.679-0.105-2.521-0.137c-0.669-0.025-1.339-0.035-2.01-0.047c-0.528-0.009-1.054-0.037-1.583-0.037
	c-0.457,0-0.913,0.01-1.369,0.017c-0.098,0.001-0.195-0.004-0.293-0.002c-0.063,0.001-0.126,0.007-0.19,0.008
	c-1.396,0.026-2.786,0.086-4.171,0.173c-0.114,0.008-0.23,0.014-0.344,0.021c-1.44,0.096-2.874,0.225-4.301,0.386
	c-0.05,0.005-0.1,0.011-0.149,0.017c-17.99,2.051-34.838,9.201-48.83,20.752c-0.002,0.002-0.003,0.003-0.005,0.005
	c-1.159,0.956-2.299,1.941-3.417,2.958c-0.019,0.017-0.037,0.034-0.055,0.051c-1.11,1.011-2.2,2.048-3.268,3.116
	c-17.295,17.295-27.057,40.283-27.486,64.73c-0.396,22.441,7.115,43.917,21.218,61.11l-31.448,31.447
	C23.706,215.515,11.642,182.947,12.009,148.712z M95.207,89.52c0.561-0.509,1.14-0.991,1.712-1.482
	c0.433-0.372,0.856-0.757,1.296-1.119c0.767-0.631,1.551-1.233,2.337-1.835c0.257-0.197,0.508-0.405,0.767-0.599
	c0.899-0.671,1.816-1.315,2.739-1.946c0.153-0.105,0.304-0.219,0.458-0.322c0.992-0.669,2-1.311,3.018-1.934
	c0.092-0.056,0.18-0.116,0.271-0.172c1.052-0.639,2.118-1.248,3.195-1.837c0.063-0.034,0.125-0.072,0.188-0.107
	c1.084-0.588,2.182-1.148,3.289-1.686c0.063-0.03,0.123-0.063,0.185-0.094c1.092-0.526,2.197-1.024,3.312-1.501
	c0.085-0.036,0.169-0.076,0.254-0.112c1.08-0.458,2.173-0.887,3.271-1.297c0.128-0.049,0.255-0.101,0.383-0.148
	c1.048-0.386,2.108-0.742,3.173-1.084c0.189-0.062,0.378-0.129,0.568-0.188c1.003-0.314,2.016-0.601,3.031-0.876
	c0.264-0.071,0.525-0.149,0.789-0.218c0.946-0.247,1.9-0.467,2.856-0.679c0.347-0.077,0.692-0.161,1.04-0.233
	c0.882-0.185,1.77-0.344,2.659-0.499c0.435-0.075,0.867-0.156,1.304-0.225c0.814-0.129,1.635-0.235,2.456-0.34
	c0.52-0.065,1.038-0.136,1.56-0.191c0.754-0.081,1.512-0.143,2.27-0.203c0.595-0.048,1.189-0.097,1.787-0.131
	c0.703-0.041,1.409-0.065,2.115-0.088c0.659-0.021,1.317-0.043,1.979-0.049c0.73-0.007,1.459,0.001,2.188,0.013
	c0.525,0.01,1.052,0.015,1.576,0.033c0.67,0.024,1.337,0.067,2.005,0.107c0.601,0.036,1.202,0.064,1.801,0.114
	c0.42,0.034,0.836,0.086,1.255,0.127c2.929,0.288,5.83,0.723,8.689,1.318c0.156,0.032,0.314,0.061,0.471,0.094
	c0.959,0.205,1.911,0.434,2.86,0.673c0.192,0.048,0.385,0.095,0.576,0.144c0.944,0.246,1.882,0.51,2.815,0.789
	c0.182,0.054,0.363,0.108,0.545,0.164c0.948,0.29,1.893,0.597,2.83,0.922c0.139,0.048,0.278,0.099,0.418,0.148
	c0.977,0.345,1.949,0.703,2.912,1.086c0.039,0.015,0.078,0.031,0.117,0.047c3.974,1.583,7.818,3.488,11.508,5.685
	c0.258,0.153,0.519,0.3,0.774,0.456c0.642,0.392,1.273,0.803,1.903,1.212c0.418,0.272,0.837,0.541,1.25,0.82
	c0.545,0.368,1.082,0.747,1.618,1.129c0.497,0.354,0.991,0.71,1.48,1.075c0.47,0.351,0.937,0.706,1.399,1.066
	c0.22,0.172,0.436,0.351,0.654,0.525L86.073,201.114c-0.189-0.238-0.385-0.472-0.571-0.712c-0.326-0.42-0.648-0.843-0.966-1.269
	c-0.437-0.583-0.862-1.171-1.282-1.765c-0.305-0.431-0.608-0.863-0.904-1.3c-0.412-0.607-0.812-1.223-1.206-1.84
	c-0.277-0.434-0.557-0.865-0.825-1.303c-0.398-0.65-0.78-1.309-1.16-1.969c-0.238-0.416-0.484-0.828-0.716-1.247
	c-0.413-0.748-0.804-1.507-1.192-2.266c-0.175-0.342-0.359-0.679-0.529-1.022c-0.548-1.108-1.072-2.228-1.568-3.359
	c-0.052-0.119-0.098-0.242-0.148-0.361c-0.439-1.015-0.859-2.036-1.256-3.067c-0.15-0.388-0.283-0.782-0.427-1.173
	c-0.282-0.77-0.563-1.54-0.822-2.318c-0.152-0.459-0.292-0.922-0.437-1.384c-0.226-0.72-0.447-1.441-0.653-2.169
	c-0.139-0.489-0.267-0.982-0.396-1.475c-0.187-0.71-0.366-1.422-0.534-2.138c-0.118-0.505-0.229-1.012-0.338-1.52
	c-0.153-0.714-0.296-1.431-0.43-2.15c-0.096-0.51-0.188-1.021-0.273-1.534c-0.121-0.73-0.229-1.464-0.331-2.199
	c-0.069-0.504-0.142-1.009-0.202-1.516c-0.092-0.765-0.165-1.533-0.235-2.303c-0.044-0.48-0.094-0.959-0.13-1.441
	c-0.062-0.848-0.101-1.699-0.137-2.552c-0.018-0.407-0.046-0.812-0.058-1.22c-0.035-1.261-0.046-2.525-0.023-3.794
	c0.375-21.322,8.889-41.372,23.973-56.456C93.246,91.343,94.218,90.418,95.207,89.52z M284.08,102.493l-12.59-12.612
	c-2.341-2.346-6.139-2.347-8.485-0.007c-2.345,2.341-2.349,6.14-0.007,8.485l12.597,12.618l-26.493,26.494l-12.566-12.589
	c-2.342-2.346-6.14-2.349-8.485-0.007c-2.345,2.341-2.349,6.14-0.007,8.485l12.573,12.595l-25.68,25.681l-12.543-12.563
	c-2.342-2.346-6.142-2.347-8.485-0.007c-2.345,2.342-2.348,6.141-0.007,8.485l12.55,12.569l-26.391,26.39l-12.691-12.711
	c-2.342-2.346-6.142-2.347-8.485-0.007c-2.345,2.342-2.348,6.141-0.007,8.485l12.699,12.718l-25.784,25.783l-12.496-12.515
	c-2.341-2.345-6.141-2.348-8.485-0.007c-2.345,2.342-2.348,6.141-0.007,8.485l12.503,12.521l-26.253,26.253l-12.646-12.663
	c-2.341-2.346-6.14-2.348-8.484-0.006c-2.345,2.341-2.348,6.14-0.006,8.484l12.651,12.669l-26.513,26.513l-41.206-41.207
	L269.309,34.851l41.207,41.207L284.08,102.493z"/>
<g>
</g>
<g>
</g>
<g>
</g>
<g>
</g>
<g>
</g>
<g>
</g>
<g>
</g>
<g>
</g>
<g>
</g>
<g>
</g>
<g>
</g>
<g>
</g>
<g>
</g>
<g>
</g>
<g>
</g>
</svg>
