<?xml version="1.0" encoding="iso-8859-1"?>
<!-- Generator: Adobe Illustrator 18.0.0, SVG Export Plug-In . SVG Version: 6.00 Build 0)  -->
<!DOCTYPE svg PUBLIC "-//W3C//DTD SVG 1.1//EN" "http://www.w3.org/Graphics/SVG/1.1/DTD/svg11.dtd">
<svg version="1.1" id="Capa_1" xmlns="http://www.w3.org/2000/svg" xmlns:xlink="http://www.w3.org/1999/xlink" x="0px" y="0px"
	 viewBox="0 0 325 325" style="enable-background:new 0 0 325 325;" xml:space="preserve">
<path d="M265.819,290.782L235.85,200h5.65c3.313,0,6-2.686,6-6s-2.687-6-6-6h-9.611l-30.414-92.128
	c1.998-4.834,3.108-10.113,3.108-15.646c0-16.155-9.397-30.181-23.083-37.081V6c0-3.313-2.687-6-6-6h-26c-3.314,0-6,2.687-6,6
	v36.949c-13.899,6.828-23.474,20.969-23.474,37.277c0,5.735,1.184,11.203,3.323,16.18L93.111,188H83.5c-3.313,0-6,2.686-6,6
	s2.687,6,6,6h5.65l-29.97,90.782c-0.503,1.522-0.375,3.182,0.354,4.608c0.729,1.428,1.998,2.504,3.525,2.99l7.44,2.367V319
	c0,3.314,2.687,6,6,6c3.314,0,6-2.686,6-6v-14.435l3.773,1.2c0.604,0.192,1.217,0.284,1.819,0.284c2.521,0,4.866-1.603,5.697-4.123
	L127.39,200h29.11v13c0,3.314,2.686,6,6,6c3.313,0,6-2.686,6-6v-13h29.11l33.6,101.926c0.831,2.52,3.175,4.123,5.697,4.123
	c0.602,0,1.215-0.092,1.819-0.284l3.773-1.2V319c0,3.314,2.686,6,6,6c3.313,0,6-2.686,6-6v-18.252l7.44-2.367
	c1.527-0.486,2.797-1.563,3.525-2.99C266.194,293.964,266.322,292.304,265.819,290.782z M219.252,188H206.29l-23.522-71.354
	c3.847-2.104,7.321-4.783,10.315-7.917L219.252,188z M155.5,39V12h14v27h-1.311c-1.925-0.266-3.887-0.412-5.884-0.412
	c-1.997,0-3.96,0.147-5.884,0.412H155.5z M157.301,51h10.009c14.321,2.343,25.273,14.553,25.273,29.227
	c0,16.343-13.582,29.639-30.277,29.639c-16.696,0-30.279-13.296-30.279-29.639C132.026,65.553,142.979,53.343,157.301,51z
	 M131.818,109.03c3.014,3.093,6.499,5.738,10.352,7.803L118.71,188h-12.962L131.818,109.03z M84.251,292.529l-4.149-1.32
	C79.098,290.453,77.854,290,76.5,290c-0.059,0-0.115,0.007-0.174,0.009l-3.85-1.225L101.786,200h12.968L84.251,292.529z M168.5,188
	v-13c0-3.314-2.687-6-6-6c-3.314,0-6,2.686-6,6v13h-25.154l22.106-67.061c2.856,0.602,5.817,0.926,8.854,0.926
	c3.165,0,6.246-0.355,9.215-1.008L193.654,188H168.5z M210.246,200h12.968l29.309,88.784l-3.85,1.225
	c-0.059-0.002-0.115-0.009-0.174-0.009c-1.354,0-2.598,0.453-3.602,1.209l-4.149,1.32L210.246,200z"/>
<g>
</g>
<g>
</g>
<g>
</g>
<g>
</g>
<g>
</g>
<g>
</g>
<g>
</g>
<g>
</g>
<g>
</g>
<g>
</g>
<g>
</g>
<g>
</g>
<g>
</g>
<g>
</g>
<g>
</g>
</svg>
