<?xml version="1.0" encoding="iso-8859-1"?>
<!-- Generator: Adobe Illustrator 18.0.0, SVG Export Plug-In . SVG Version: 6.00 Build 0)  -->
<!DOCTYPE svg PUBLIC "-//W3C//DTD SVG 1.1//EN" "http://www.w3.org/Graphics/SVG/1.1/DTD/svg11.dtd">
<svg version="1.1" id="Capa_1" xmlns="http://www.w3.org/2000/svg" xmlns:xlink="http://www.w3.org/1999/xlink" x="0px" y="0px"
	 viewBox="0 0 325.027 325.027" style="enable-background:new 0 0 325.027 325.027;" xml:space="preserve">
<path d="M324.457,47.783c-1.609-8.103-6.564-16.215-15.147-24.797l-7.265-7.267C291.475,5.151,281.532,0.013,271.647,0.013
	c-8.097,0-15.742,3.541-22.726,10.525L25.295,234.166c-2.343,2.343-2.343,6.142,0.001,8.485l2.583,2.583L1.497,301.02
	c-1.837,3.945-3.172,12.396,3.474,19.04c3.239,3.24,7.343,4.953,11.865,4.953c3.806,0,6.643-1.231,7.209-1.494l55.753-26.369
	l2.585,2.585c1.171,1.171,2.707,1.757,4.242,1.757c1.535,0,3.071-0.586,4.242-1.758L305.31,85.293
	c0.508-0.272,0.996-0.595,1.424-1.023c0.429-0.428,0.751-0.916,1.022-1.424l6.737-6.736
	C323.125,67.478,326.476,57.948,324.457,47.783z M19.018,312.623c-0.173,0.066-1.07,0.391-2.183,0.391
	c-1.325,0-2.399-0.457-3.381-1.438c-2.212-2.213-1.301-4.932-1.05-5.553l24.486-51.777l33.895,33.893L19.018,312.623z
	 M86.625,287.007l-24.3-24.3l-22.972-22.971c-0.003-0.002-0.006-0.005-0.008-0.007l-1.321-1.321L245.206,31.224l48.601,48.602
	L86.625,287.007z M306.008,67.625l-3.717,3.717L253.69,22.74l3.717-3.717c4.717-4.717,9.375-7.01,14.24-7.01
	c6.45,0,13.822,4.102,21.912,12.191l7.265,7.267c6.755,6.755,10.747,13.029,11.863,18.649
	C313.894,56.197,311.71,61.923,306.008,67.625z"/>
<g>
</g>
<g>
</g>
<g>
</g>
<g>
</g>
<g>
</g>
<g>
</g>
<g>
</g>
<g>
</g>
<g>
</g>
<g>
</g>
<g>
</g>
<g>
</g>
<g>
</g>
<g>
</g>
<g>
</g>
</svg>
