<?xml version="1.0" encoding="iso-8859-1"?>
<!-- Generator: Adobe Illustrator 18.0.0, SVG Export Plug-In . SVG Version: 6.00 Build 0)  -->
<!DOCTYPE svg PUBLIC "-//W3C//DTD SVG 1.1//EN" "http://www.w3.org/Graphics/SVG/1.1/DTD/svg11.dtd">
<svg version="1.1" id="Capa_1" xmlns="http://www.w3.org/2000/svg" xmlns:xlink="http://www.w3.org/1999/xlink" x="0px" y="0px"
	 viewBox="0 0 324.992 324.992" style="enable-background:new 0 0 324.992 324.992;" xml:space="preserve">
<g>
	<path d="M320.764,100.597l-75.04-75.042c-2.731-2.729-6.388-4.233-10.296-4.233c-4.05,0-7.878,1.598-10.777,4.498L53.536,196.935
		c-2.815,2.815-4.412,6.532-4.493,10.466c-0.084,4.029,1.419,7.797,4.232,10.607l10.969,10.969l-62.487,62.49
		c-1.698,1.698-2.22,4.245-1.326,6.475c0.893,2.23,3.03,3.711,5.432,3.766l85.203,1.96c0.046,0.001,0.092,0.002,0.138,0.002
		c1.59,0,3.116-0.631,4.242-1.758l20.866-20.866l12.002,12.002c2.73,2.731,6.388,4.235,10.297,4.235
		c4.052,0,7.879-1.598,10.776-4.497l171.116-171.115C326.384,115.788,326.501,106.334,320.764,100.597z M88.776,291.612
		l-68.615-1.578l52.567-52.57l35.098,35.099L88.776,291.612z M312.018,113.186L140.901,284.302c-0.852,0.854-1.801,0.98-2.29,0.98
		c-0.498,0-1.216-0.125-1.812-0.72l-75.04-75.041c-0.613-0.613-0.729-1.357-0.719-1.871c0.017-0.823,0.365-1.614,0.98-2.23
		L233.135,34.304c0.634-0.633,1.448-0.982,2.293-0.982c0.498,0,1.217,0.125,1.813,0.72l75.039,75.04
		C313.338,110.141,313.221,111.982,312.018,113.186z"/>
	<path d="M248.406,78.184c-5.737-5.738-15.192-5.619-21.073,0.264L209.28,96.5c-8.921,0.609-17.228,4.365-23.612,10.749
		c-6.56,6.561-10.128,14.99-10.728,23.591l-57.545,57.545c-5.883,5.882-6.001,15.336-0.264,21.074l18.7,18.7
		c2.822,2.823,6.543,4.229,10.297,4.229c3.877,0,7.79-1.501,10.778-4.49l57.524-57.524c8.921-0.609,17.227-4.365,23.61-10.748
		c6.386-6.385,10.143-14.691,10.751-23.615l18.052-18.05c5.882-5.884,5.999-15.338,0.262-21.074L248.406,78.184z M148.422,219.413
		c-0.616,0.615-1.409,0.964-2.232,0.981c-0.51-0.016-1.26-0.106-1.874-0.72l-18.699-18.7c-1.059-1.06-0.941-2.9,0.263-4.105
		l51.072-51.07c1.779,5.052,4.684,9.792,8.716,13.825c3.966,3.966,8.673,6.919,13.808,8.734L148.422,219.413z M236.89,133.438
		c0,6.686-2.604,12.972-7.333,17.701c-4.729,4.727-11.016,7.332-17.702,7.332c-6.688,0-12.974-2.605-17.701-7.332
		c-9.761-9.762-9.761-25.645-0.001-35.405c4.729-4.729,11.016-7.332,17.702-7.332c6.688,0,12.974,2.604,17.702,7.332
		c4.725,4.725,7.328,11.006,7.333,17.686C236.89,133.426,236.89,133.432,236.89,133.438z M258.359,109.474l-11.582,11.581
		c-1.816-5.135-4.77-9.842-8.735-13.807c-3.965-3.966-8.672-6.918-13.807-8.733l11.583-11.583c1.204-1.203,3.043-1.32,4.104-0.263
		l18.7,18.7C259.68,106.429,259.562,108.271,258.359,109.474z"/>
	<circle cx="211.855" cy="133.436" r="9.845"/>
</g>
<g>
</g>
<g>
</g>
<g>
</g>
<g>
</g>
<g>
</g>
<g>
</g>
<g>
</g>
<g>
</g>
<g>
</g>
<g>
</g>
<g>
</g>
<g>
</g>
<g>
</g>
<g>
</g>
<g>
</g>
</svg>
