<?xml version="1.0" encoding="iso-8859-1"?>
<!-- Generator: Adobe Illustrator 18.0.0, SVG Export Plug-In . SVG Version: 6.00 Build 0)  -->
<!DOCTYPE svg PUBLIC "-//W3C//DTD SVG 1.1//EN" "http://www.w3.org/Graphics/SVG/1.1/DTD/svg11.dtd">
<svg version="1.1" id="Capa_1" xmlns="http://www.w3.org/2000/svg" xmlns:xlink="http://www.w3.org/1999/xlink" x="0px" y="0px"
	 viewBox="0 0 325 325" style="enable-background:new 0 0 325 325;" xml:space="preserve">
<path d="M283.969,61.915c-0.367-1.948-1.674-3.59-3.49-4.385L216.08,29.349L190.171,3.44C187.954,1.222,184.987,0,181.818,0
	c-3.265,0-6.348,1.284-8.682,3.617L133.565,43.19c-4.742,4.744-4.822,12.385-0.177,17.034l4.583,4.583l-76.533,85.813
	c-0.157-0.004-0.312-0.023-0.47-0.023c-11.051,0-20.041,8.991-20.041,20.043c0,11.051,8.99,20.042,20.041,20.042
	c0.996,0,1.968-0.097,2.926-0.238l96.417,101.41h-54.755c-3.313,0-6,2.686-6,6V319c0,3.314,2.687,6,6,6h127.213c3.313,0,6-2.686,6-6
	v-21.146c0-3.314-2.687-6-6-6h-55.9L75.11,184.827c3.643-3.631,5.9-8.649,5.9-14.187c0-6.286-2.914-11.899-7.457-15.577
	l72.916-81.757l12.825,12.825l28.184,64.399c0.795,1.816,2.437,3.123,4.385,3.491c0.37,0.069,0.742,0.104,1.112,0.104
	c1.576,0,3.107-0.622,4.242-1.758l18.515-18.515c4.623,2.904,10.012,4.344,15.573,4.344c8.993,0,18.427-3.748,25.76-11.08
	c11.867-11.866,14.343-29.234,6.739-41.337l18.511-18.511C283.718,65.868,284.337,63.863,283.969,61.915z M226.769,313H111.556
	v-9.146h115.213V313z M52.927,170.641c0-4.434,3.607-8.043,8.041-8.043c4.435,0,8.043,3.608,8.043,8.043
	c0,4.435-3.608,8.042-8.043,8.042C56.534,178.683,52.927,175.075,52.927,170.641z M142.051,51.675l39.571-39.572
	c0.058-0.058,0.11-0.083,0.147-0.095l22.385,22.385l-19.91,19.909l-19.905,19.904l-22.384-22.384
	C141.966,51.786,141.991,51.734,142.051,51.675z M248.581,118.632c-7.017,7.014-16.672,9.283-23.961,6.333l30.293-30.293
	C257.864,101.962,255.596,111.617,248.581,118.632z M251.559,81.057l-0.001,0.001l-0.001,0.001l-56.608,56.609l-23.471-53.63
	l21.258-21.257l21.251-21.25L267.615,65L251.559,81.057z"/>
<g>
</g>
<g>
</g>
<g>
</g>
<g>
</g>
<g>
</g>
<g>
</g>
<g>
</g>
<g>
</g>
<g>
</g>
<g>
</g>
<g>
</g>
<g>
</g>
<g>
</g>
<g>
</g>
<g>
</g>
</svg>
