<?xml version="1.0" encoding="iso-8859-1"?>
<!-- Generator: Adobe Illustrator 18.0.0, SVG Export Plug-In . SVG Version: 6.00 Build 0)  -->
<!DOCTYPE svg PUBLIC "-//W3C//DTD SVG 1.1//EN" "http://www.w3.org/Graphics/SVG/1.1/DTD/svg11.dtd">
<svg version="1.1" id="Capa_1" xmlns="http://www.w3.org/2000/svg" xmlns:xlink="http://www.w3.org/1999/xlink" x="0px" y="0px"
	 viewBox="0 0 325.015 325.015" style="enable-background:new 0 0 325.015 325.015;" xml:space="preserve">
<path d="M313.248,11.759c-7.798-7.799-18.757-11.752-32.571-11.752c-37.556,0-91.823,29.309-141.624,76.49
	c-0.713,0.676-1.249,1.516-1.562,2.447l-14.117,42.075l-18.867-3.02c-2.139-0.342-4.294,0.493-5.643,2.188
	c-42.899,53.895-43.507,125.585-43.126,140.596l-53.98,53.98c-2.344,2.343-2.344,6.142,0,8.484c1.171,1.172,2.707,1.758,4.242,1.758
	c1.535,0,3.071-0.586,4.242-1.758l54.224-54.224c7.339-0.521,30.784-2.726,60.472-10.959c32.645-9.054,79.152-27.441,115.334-63.623
	c6.458-6.456,12.774-13.184,18.77-19.994c1.473-1.673,1.897-4.023,1.103-6.105l-6.784-17.765l39.994-22.703
	c0.87-0.494,1.604-1.197,2.132-2.047C327.156,74.952,333.797,32.308,313.248,11.759z M286.097,118.198l-43.143,24.49
	c-2.578,1.463-3.701,4.589-2.644,7.358l7.323,19.177c-5.104,5.696-10.424,11.314-15.847,16.735
	c-34.256,34.255-78.594,51.786-109.756,60.461c-17.621,4.905-33.139,7.612-44.044,9.085L189.66,143.832
	c2.344-2.343,2.344-6.142,0-8.484c-2.342-2.344-6.143-2.344-8.484,0L67.913,248.61c1.031-24.79,7.094-77.157,38.204-118.199
	l20.38,3.262c2.897,0.461,5.703-1.235,6.637-4.017l15.257-45.471c46.657-43.885,98.466-72.178,132.286-72.178
	c10.517,0,18.62,2.77,24.086,8.236C320.451,35.933,313.109,74.291,286.097,118.198z"/>
<g>
</g>
<g>
</g>
<g>
</g>
<g>
</g>
<g>
</g>
<g>
</g>
<g>
</g>
<g>
</g>
<g>
</g>
<g>
</g>
<g>
</g>
<g>
</g>
<g>
</g>
<g>
</g>
<g>
</g>
</svg>
