<?xml version="1.0" encoding="iso-8859-1"?>
<!-- Generator: Adobe Illustrator 18.0.0, SVG Export Plug-In . SVG Version: 6.00 Build 0)  -->
<!DOCTYPE svg PUBLIC "-//W3C//DTD SVG 1.1//EN" "http://www.w3.org/Graphics/SVG/1.1/DTD/svg11.dtd">
<svg version="1.1" id="Capa_1" xmlns="http://www.w3.org/2000/svg" xmlns:xlink="http://www.w3.org/1999/xlink" x="0px" y="0px"
	 viewBox="0 0 325 325" style="enable-background:new 0 0 325 325;" xml:space="preserve">
<g>
	<path d="M136.714,113.539c-0.143-2.224-1.504-4.186-3.538-5.095l-11.409-5.104l8.562-31.045c0.266-0.964,0.286-1.98,0.06-2.954
		C120.284,25.922,101.1,0,79.069,0C63.178,0,48.514,13.576,37.777,38.227C27.798,61.14,21.812,91.949,20.919,124.98
		c-0.026,0.982,0.188,1.955,0.626,2.835l13.83,27.797l-10.194,7.382c-1.753,1.27-2.687,3.386-2.442,5.536
		c5.623,49.511,41.326,86.722,50.331,95.398V319c0,3.314,2.687,6,6,6c3.313,0,6-2.686,6-6v-55.404
		c9.026-10.459,52.281-64.03,52.281-129.932C137.351,126.944,137.137,120.173,136.714,113.539z M85.069,244.078V133.664
		c0-3.313-2.687-6-6-6c-3.313,0-6,2.687-6,6v112.782c-12.542-14.281-33.003-42.06-37.959-75.826l11.42-8.271
		c2.375-1.72,3.159-4.906,1.853-7.532l-15.424-31.001c0.985-30.96,6.589-59.603,15.82-80.798C57.364,23.306,68.405,12,79.069,12
		c15.373,0,30.72,22.942,39.282,58.586l-9.524,34.532c-0.788,2.856,0.629,5.861,3.334,7.071l12.783,5.719
		c0.27,5.219,0.405,10.503,0.405,15.756C125.351,181.555,99.911,223.611,85.069,244.078z"/>
	<path d="M276.281,211.079c4.324-3.157,7.14-8.17,7.14-13.823v-13.41c0-9.535-7.973-17.292-17.771-17.292h-79.764
		c-9.801,0-17.773,7.757-17.773,17.292v13.41c0,5.654,2.815,10.667,7.141,13.824c-9.949,11.232-27.801,34.482-27.801,56.746
		c0,30.857,35.963,55.146,37.494,56.166c0.984,0.655,2.142,1.005,3.324,1.005h74.996c1.183,0,2.34-0.35,3.324-1.005
		c1.531-1.02,37.492-25.309,37.492-56.166C304.083,245.563,286.232,222.311,276.281,211.079z M180.112,183.846
		c0-2.918,2.59-5.292,5.773-5.292h79.764c3.183,0,5.771,2.374,5.771,5.292v13.41c0,2.918-2.589,5.292-5.771,5.292h-79.764
		c-3.184,0-5.773-2.374-5.773-5.292V183.846z M188.392,214.548h74.751c2.714,2.815,8.369,8.963,13.963,16.797
		c3.979,5.571,7.182,10.956,9.6,16.072H164.83c2.418-5.116,5.62-10.501,9.6-16.072C180.025,223.51,185.68,217.362,188.392,214.548z
		 M261.361,312.997H190.17c-6.229-4.522-30.718-23.678-30.718-45.171c0-2.643,0.359-5.455,1.053-8.409H291.03
		c0.693,2.954,1.053,5.767,1.053,8.409C292.083,289.247,267.581,308.465,261.361,312.997z"/>
</g>
<g>
</g>
<g>
</g>
<g>
</g>
<g>
</g>
<g>
</g>
<g>
</g>
<g>
</g>
<g>
</g>
<g>
</g>
<g>
</g>
<g>
</g>
<g>
</g>
<g>
</g>
<g>
</g>
<g>
</g>
</svg>
