<?xml version="1.0" encoding="iso-8859-1"?>
<!-- Generator: Adobe Illustrator 18.0.0, SVG Export Plug-In . SVG Version: 6.00 Build 0)  -->
<!DOCTYPE svg PUBLIC "-//W3C//DTD SVG 1.1//EN" "http://www.w3.org/Graphics/SVG/1.1/DTD/svg11.dtd">
<svg version="1.1" id="Capa_1" xmlns="http://www.w3.org/2000/svg" xmlns:xlink="http://www.w3.org/1999/xlink" x="0px" y="0px"
	 viewBox="0 0 325 325" style="enable-background:new 0 0 325 325;" xml:space="preserve">
<path d="M216.732,129.252h-5.976V99.221c0-3.313-2.686-6-6-6h-10.391L174.988,4.717C174.385,1.963,171.946,0,169.127,0h-13.254
	c-2.819,0-5.258,1.963-5.861,4.717l-19.378,88.504h-10.39c-3.313,0-6,2.687-6,6v30.031h-5.978
	c-14.081,0-25.537,11.458-25.537,25.541V299.46c0,14.083,11.456,25.54,25.537,25.54h108.466c14.082,0,25.538-11.457,25.538-25.54
	V154.793C242.27,140.71,230.814,129.252,216.732,129.252z M94.729,189.656H230.27v69.113H94.729V189.656z M198.757,129.252h-16.171
	v-24.031h6.935c0.004,0,0.008,0.001,0.012,0.001c0.006,0,0.012-0.001,0.019-0.001h9.206V129.252z M154.415,129.252v-24.031h16.171
	v24.031H154.415z M160.701,12h3.598l17.783,81.221h-39.164L160.701,12z M126.244,105.221h16.171v24.031h-16.171V105.221z
	 M108.267,141.252h11.978h84.513h11.976c7.465,0,13.538,6.074,13.538,13.541v22.863H94.729v-22.863
	C94.729,147.326,100.802,141.252,108.267,141.252z M216.732,313H108.267c-7.465,0-13.537-6.074-13.537-13.54v-28.69H230.27v28.69
	C230.27,306.926,224.197,313,216.732,313z"/>
<g>
</g>
<g>
</g>
<g>
</g>
<g>
</g>
<g>
</g>
<g>
</g>
<g>
</g>
<g>
</g>
<g>
</g>
<g>
</g>
<g>
</g>
<g>
</g>
<g>
</g>
<g>
</g>
<g>
</g>
</svg>
