<?xml version="1.0" encoding="iso-8859-1"?>
<!-- Generator: Adobe Illustrator 18.0.0, SVG Export Plug-In . SVG Version: 6.00 Build 0)  -->
<!DOCTYPE svg PUBLIC "-//W3C//DTD SVG 1.1//EN" "http://www.w3.org/Graphics/SVG/1.1/DTD/svg11.dtd">
<svg version="1.1" id="Capa_1" xmlns="http://www.w3.org/2000/svg" xmlns:xlink="http://www.w3.org/1999/xlink" x="0px" y="0px"
	 viewBox="0 0 325 325" style="enable-background:new 0 0 325 325;" xml:space="preserve">
<path d="M287.281,120.346c-10.453-14.594-20.814-26.424-27.599-33.718c11.273-4.54,19.221-15.304,19.221-27.831v-28.66
	C278.903,13.519,264.925,0,247.743,0H77.259C60.076,0,46.097,13.519,46.097,30.137v28.66c0,12.527,7.948,23.291,19.223,27.831
	c-6.786,7.294-17.146,19.125-27.6,33.718c-23.744,33.147-35.783,63.186-35.783,89.283c0,62.339,73.945,112.271,77.094,114.366
	c0.984,0.655,2.142,1.005,3.324,1.005h160.293c1.183,0,2.34-0.35,3.324-1.005c3.148-2.096,77.092-52.027,77.092-114.366
	C323.064,183.532,311.024,153.493,287.281,120.346z M58.097,58.797v-28.66C58.097,20.136,66.692,12,77.259,12h170.484
	c10.565,0,19.16,8.136,19.16,18.137v28.66c0,10-8.595,18.135-19.16,18.135H77.259C66.692,76.932,58.097,68.797,58.097,58.797z
	 M79.74,88.932h165.523c7.979,8.086,42.25,44.257,57.923,83.9H21.825C37.504,133.211,71.765,97.021,79.74,88.932z M240.771,313
	H84.229c-10.179-7.192-70.293-51.87-70.293-103.371c0-8.16,1.397-16.499,3.777-24.797h289.578
	c2.378,8.296,3.771,16.634,3.771,24.797C311.064,261.051,250.941,305.801,240.771,313z"/>
<g>
</g>
<g>
</g>
<g>
</g>
<g>
</g>
<g>
</g>
<g>
</g>
<g>
</g>
<g>
</g>
<g>
</g>
<g>
</g>
<g>
</g>
<g>
</g>
<g>
</g>
<g>
</g>
<g>
</g>
</svg>
