<?xml version="1.0" encoding="iso-8859-1"?>
<!-- Generator: Adobe Illustrator 18.0.0, SVG Export Plug-In . SVG Version: 6.00 Build 0)  -->
<!DOCTYPE svg PUBLIC "-//W3C//DTD SVG 1.1//EN" "http://www.w3.org/Graphics/SVG/1.1/DTD/svg11.dtd">
<svg version="1.1" id="Capa_1" xmlns="http://www.w3.org/2000/svg" xmlns:xlink="http://www.w3.org/1999/xlink" x="0px" y="0px"
	 viewBox="0 0 325 325" style="enable-background:new 0 0 325 325;" xml:space="preserve">
<path d="M318.198,4.114C315.467,1.384,311.767,0,307.2,0c-9.672,0-24.253,6.553-44.578,20.032
	c-17.004,11.277-37.883,27.309-62.057,47.65c-47.666,40.108-97.972,88.477-129.157,120.368c-0.143,0.146-0.249,0.312-0.374,0.467
	L5.622,225.788c-1.626,0.926-2.727,2.559-2.976,4.413c-0.25,1.854,0.381,3.719,1.704,5.042l87.998,87.999
	C93.481,324.375,95.01,325,96.59,325c0.271,0,0.544-0.019,0.816-0.056c1.859-0.256,3.493-1.367,4.413-3.003l37.477-66.628
	c34.623-35.446,85.72-91.336,125.996-142.638C328.235,32.505,326.629,12.546,318.198,4.114z M103.708,172.683l49.829,50.409
	c-6.72,7.143-13.14,13.865-19.117,20.027l-50.3-50.887C90.087,186.18,96.665,179.61,103.708,172.683z M95.239,309.163L83.076,297
	l17.709-17.709c2.343-2.343,2.343-6.142-0.001-8.485c-2.342-2.342-6.142-2.343-8.485,0.001l-17.707,17.708l-13.52-13.518
	l17.69-17.802c2.336-2.351,2.324-6.149-0.026-8.485c-2.352-2.335-6.148-2.323-8.485,0.026l-17.664,17.775L38.87,252.793
	l17.717-17.823c2.336-2.35,2.324-6.148-0.026-8.485c-2.349-2.334-6.149-2.323-8.485,0.026l-17.69,17.797L18.397,232.32l56.29-32.072
	l52.309,52.457L95.239,309.163z M161.742,214.32l-49.451-50.026c28.331-27.538,62.811-59.503,96-87.43
	C231.468,57.361,287.504,12,307.2,12c1.216,0,2.132,0.219,2.513,0.6c0.044,0.044,4.169,4.607-9.419,28.944
	c-9.13,16.352-24.081,37.79-44.439,63.722C226.707,142.391,191.833,181.955,161.742,214.32z"/>
<g>
</g>
<g>
</g>
<g>
</g>
<g>
</g>
<g>
</g>
<g>
</g>
<g>
</g>
<g>
</g>
<g>
</g>
<g>
</g>
<g>
</g>
<g>
</g>
<g>
</g>
<g>
</g>
<g>
</g>
</svg>
