<?xml version="1.0" encoding="iso-8859-1"?>
<!-- Generator: Adobe Illustrator 18.0.0, SVG Export Plug-In . SVG Version: 6.00 Build 0)  -->
<!DOCTYPE svg PUBLIC "-//W3C//DTD SVG 1.1//EN" "http://www.w3.org/Graphics/SVG/1.1/DTD/svg11.dtd">
<svg version="1.1" id="Capa_1" xmlns="http://www.w3.org/2000/svg" xmlns:xlink="http://www.w3.org/1999/xlink" x="0px" y="0px"
	 viewBox="0 0 325 325" style="enable-background:new 0 0 325 325;" xml:space="preserve">
<path d="M277.729,0H85.423c-3.313,0-6,2.687-6,6v38.489H47.271c-3.313,0-6,2.687-6,6V319c0,3.314,2.687,6,6,6h161.535
	c0.213,0,0.423-0.012,0.63-0.033c0.037-0.004,0.072-0.013,0.108-0.017c0.173-0.021,0.344-0.047,0.512-0.083
	c0.039-0.008,0.077-0.02,0.117-0.029c0.162-0.038,0.322-0.08,0.479-0.13c0.05-0.017,0.098-0.036,0.146-0.054
	c0.143-0.051,0.284-0.103,0.422-0.164c0.061-0.026,0.118-0.057,0.178-0.086c0.122-0.058,0.242-0.117,0.359-0.184
	c0.068-0.039,0.135-0.081,0.201-0.123c0.104-0.063,0.205-0.129,0.305-0.199c0.071-0.05,0.14-0.103,0.209-0.156
	c0.09-0.069,0.179-0.141,0.265-0.216c0.068-0.06,0.135-0.12,0.201-0.183c0.083-0.079,0.162-0.16,0.241-0.244
	c0.037-0.039,0.077-0.074,0.113-0.115l30.771-34.646c0.015-0.017,0.024-0.036,0.039-0.053c0.209-0.24,0.398-0.497,0.566-0.77
	c0.025-0.039,0.049-0.078,0.072-0.118c0.163-0.275,0.305-0.565,0.422-0.867c0.015-0.036,0.027-0.072,0.041-0.109
	c0.112-0.306,0.203-0.621,0.265-0.948c0.007-0.032,0.01-0.063,0.015-0.096c0.058-0.333,0.094-0.674,0.094-1.023v-3.844h32.152
	c3.314,0,6-2.687,6-6V6C283.729,2.687,281.043,0,277.729,0z M53.271,56.489h180.307v221.865h-24.771c-3.313,0-6,2.686-6,6V313
	H53.271V56.489z M226.223,290.354l-11.417,12.855v-12.855H226.223z M271.729,268.511h-26.152V50.489c0-3.313-2.687-6-6-6H91.423V12
	h180.307V268.511z"/>
<g>
</g>
<g>
</g>
<g>
</g>
<g>
</g>
<g>
</g>
<g>
</g>
<g>
</g>
<g>
</g>
<g>
</g>
<g>
</g>
<g>
</g>
<g>
</g>
<g>
</g>
<g>
</g>
<g>
</g>
</svg>
