<?xml version="1.0" encoding="iso-8859-1"?>
<!-- Generator: Adobe Illustrator 18.0.0, SVG Export Plug-In . SVG Version: 6.00 Build 0)  -->
<!DOCTYPE svg PUBLIC "-//W3C//DTD SVG 1.1//EN" "http://www.w3.org/Graphics/SVG/1.1/DTD/svg11.dtd">
<svg version="1.1" id="Capa_1" xmlns="http://www.w3.org/2000/svg" xmlns:xlink="http://www.w3.org/1999/xlink" x="0px" y="0px"
	 viewBox="0 0 325 325" style="enable-background:new 0 0 325 325;" xml:space="preserve">
<path d="M323.242,121.955l-18.779-18.776c7.67-9.847,11.309-22.384,10.296-35.926c-1.148-15.364-8.172-30.217-19.775-41.819
	c-24.389-24.389-61.44-27.019-82.598-5.862c-0.002,0.002-0.003,0.004-0.003,0.004l-0.011,0.011l0,0l0,0L41.744,190.215
	c-0.059,0.059-0.101,0.131-0.157,0.192c-0.06,0.056-0.129,0.095-0.188,0.153c-0.94,0.94-1.485,2.116-1.671,3.337l-32.456,78.86
	c-0.921,2.239-0.406,4.814,1.306,6.525l11.689,11.691l-18.51,18.51c-2.344,2.343-2.344,6.142,0,8.484
	c1.171,1.172,2.707,1.758,4.242,1.758c1.535,0,3.071-0.586,4.242-1.758l18.51-18.509l12.991,12.993
	c1.148,1.15,2.684,1.758,4.244,1.758c0.797,0,1.601-0.158,2.362-0.485l79.612-34.111c0.701-0.3,1.34-0.732,1.879-1.272
	l166.407-166.407l14.265,14.263l-74.318,74.242c-2.345,2.342-2.347,6.142-0.005,8.485c1.172,1.173,2.709,1.76,4.245,1.76
	c1.534,0,3.069-0.585,4.24-1.755l78.565-78.485c1.126-1.125,1.76-2.652,1.76-4.244C325,124.607,324.368,123.081,323.242,121.955z
	 M286.498,33.919c9.572,9.572,15.359,21.729,16.294,34.229c0.745,9.952-1.688,19.142-6.9,26.461l-70.427-70.416
	C242.413,12.177,268.507,15.926,286.498,33.919z M47.357,301.094l-27.466-27.469l28.017-68.073l66.719,66.719L47.357,301.094z
	 M125.268,265.943l-71.141-71.141l162.487-162.49l71.148,71.138L125.268,265.943z"/>
<g>
</g>
<g>
</g>
<g>
</g>
<g>
</g>
<g>
</g>
<g>
</g>
<g>
</g>
<g>
</g>
<g>
</g>
<g>
</g>
<g>
</g>
<g>
</g>
<g>
</g>
<g>
</g>
<g>
</g>
</svg>
