<?xml version="1.0" encoding="iso-8859-1"?>
<!-- Generator: Adobe Illustrator 18.0.0, SVG Export Plug-In . SVG Version: 6.00 Build 0)  -->
<!DOCTYPE svg PUBLIC "-//W3C//DTD SVG 1.1//EN" "http://www.w3.org/Graphics/SVG/1.1/DTD/svg11.dtd">
<svg version="1.1" id="Capa_1" xmlns="http://www.w3.org/2000/svg" xmlns:xlink="http://www.w3.org/1999/xlink" x="0px" y="0px"
	 viewBox="0 0 324.999 324.999" style="enable-background:new 0 0 324.999 324.999;" xml:space="preserve">
<path d="M323.347,35.361c-5.16-6.143-10.614-12.102-16.211-17.71c-5.568-5.576-11.517-11.04-17.681-16.238
	c-2.385-2.008-5.91-1.86-8.114,0.348l-21.155,21.187c-9.78-7.74-16.235-11.528-16.666-11.778c-2.355-1.366-5.334-0.977-7.258,0.95
	L45.57,203.107c-0.021,0.02-0.037,0.045-0.058,0.065c-0.131,0.136-0.256,0.277-0.375,0.427c-0.03,0.038-0.064,0.075-0.094,0.115
	c-0.137,0.18-0.267,0.366-0.385,0.564c-0.005,0.008-0.008,0.016-0.013,0.023c-0.017,0.028-0.029,0.059-0.046,0.087
	c-0.101,0.179-0.191,0.359-0.273,0.543c-0.026,0.061-0.05,0.122-0.074,0.183c-0.067,0.166-0.126,0.332-0.177,0.501
	c-0.011,0.034-0.026,0.067-0.036,0.103l-26.281,93.259L2.001,314.76c-2.341,2.345-2.338,6.144,0.007,8.485
	c1.171,1.169,2.705,1.754,4.239,1.754c1.537,0,3.074-0.587,4.246-1.761l15.717-15.742l94.456-24.923
	c0.003-0.001,0.007-0.003,0.011-0.004c0.15-0.04,0.299-0.098,0.448-0.15c0.104-0.037,0.213-0.066,0.315-0.109
	c0.106-0.044,0.209-0.103,0.314-0.154c0.14-0.067,0.281-0.133,0.415-0.211c0.015-0.009,0.029-0.014,0.044-0.022
	c0.192-0.115,0.374-0.24,0.549-0.373c0.032-0.024,0.063-0.052,0.094-0.077c0.162-0.128,0.315-0.263,0.461-0.404
	c0.021-0.02,0.044-0.036,0.064-0.057l165.701-165.962c0.003-0.002,0.006-0.003,0.008-0.004c0.891-0.532,1.592-1.259,2.085-2.093
	l22.893-22.928c1.956-1.96,2.317-5.004,0.874-7.367c-0.289-0.473-4.702-7.635-13.055-18.054l21.111-21.145
	C325.196,41.258,325.347,37.743,323.347,35.361z M120.089,267.325c-4.934-7.081-14.225-19.33-27.98-33.108
	c-13.715-13.734-25.828-22.939-32.852-27.834L217.35,48.044c6.037,4.087,18.736,13.345,33.144,27.774
	c14.216,14.237,23.507,26.91,27.733,33.119L120.089,267.325z M53.354,216.912c6.691,4.738,17.807,13.309,30.262,25.783
	c12.393,12.411,21.041,23.632,25.857,30.421l-77.738,20.513L53.354,216.912z M286.858,100.293
	c-4.961-7.104-14.213-19.274-27.872-32.954c-13.811-13.832-26.004-23.072-33.003-27.939l15.361-15.386
	c5.95,3.994,18.181,12.892,32.36,27.095c14.432,14.45,24.097,27.603,28.416,33.897L286.858,100.293z M294.139,55.38
	c-3.542-4.031-7.521-8.323-11.943-12.751c-4.486-4.493-8.773-8.472-12.757-11.964l16.458-16.483
	c4.415,3.878,8.688,7.882,12.746,11.946c4.08,4.088,8.081,8.372,11.94,12.782L294.139,55.38z"/>
<g>
</g>
<g>
</g>
<g>
</g>
<g>
</g>
<g>
</g>
<g>
</g>
<g>
</g>
<g>
</g>
<g>
</g>
<g>
</g>
<g>
</g>
<g>
</g>
<g>
</g>
<g>
</g>
<g>
</g>
</svg>
