<?xml version="1.0" encoding="iso-8859-1"?>
<!-- Generator: Adobe Illustrator 18.0.0, SVG Export Plug-In . SVG Version: 6.00 Build 0)  -->
<!DOCTYPE svg PUBLIC "-//W3C//DTD SVG 1.1//EN" "http://www.w3.org/Graphics/SVG/1.1/DTD/svg11.dtd">
<svg version="1.1" id="Capa_1" xmlns="http://www.w3.org/2000/svg" xmlns:xlink="http://www.w3.org/1999/xlink" x="0px" y="0px"
	 viewBox="0 0 324.745 324.745" style="enable-background:new 0 0 324.745 324.745;" xml:space="preserve">
<g>
	<path d="M321.049,1.411c-2.236-0.929-4.815-0.424-6.534,1.284L1.771,313.537c-1.724,1.714-2.244,4.297-1.317,6.544
		c0.927,2.246,3.117,3.712,5.547,3.712h312.744c3.313,0,6-2.686,6-6V6.951C324.745,4.527,323.286,2.342,321.049,1.411z
		 M20.548,311.793L312.745,21.374v48.998h-19.372c-3.314,0-6,2.687-6,6s2.686,6,6,6h19.372v31h-19.372c-3.314,0-6,2.687-6,6
		s2.686,6,6,6h19.372v30h-19.372c-3.314,0-6,2.686-6,6c0,3.313,2.686,6,6,6h19.372v30.496l-19.208,0.002c-3.315,0-6,2.687-6,6
		c0,3.314,2.686,6,6,6l19.208-0.002v30.504h-19.372c-3.314,0-6,2.686-6,6c0,3.313,2.686,6,6,6h19.372v59.421H20.548z"/>
	<path d="M253.933,162.488c-2.235-0.928-4.814-0.424-6.534,1.284l-83.52,83.013c-1.724,1.714-2.244,4.297-1.317,6.544
		c0.927,2.246,3.117,3.712,5.547,3.712h83.52c3.313,0,6-2.686,6-6v-83.013C257.628,165.604,256.17,163.419,253.933,162.488z
		 M245.628,245.041h-62.972l62.972-62.59V245.041z"/>
</g>
<g>
	<path d="M293.536,294.701c-3.314,0-6-2.686-6-6c0-3.314,2.685-6,6-6l24.912-0.002c3.313,0,6,2.686,6,6c0,3.314-2.686,6-6,6
		L293.536,294.701z"/>
</g>
<g>
</g>
<g>
</g>
<g>
</g>
<g>
</g>
<g>
</g>
<g>
</g>
<g>
</g>
<g>
</g>
<g>
</g>
<g>
</g>
<g>
</g>
<g>
</g>
<g>
</g>
<g>
</g>
<g>
</g>
</svg>
