<?xml version="1.0" encoding="iso-8859-1"?>
<!-- Generator: Adobe Illustrator 18.0.0, SVG Export Plug-In . SVG Version: 6.00 Build 0)  -->
<!DOCTYPE svg PUBLIC "-//W3C//DTD SVG 1.1//EN" "http://www.w3.org/Graphics/SVG/1.1/DTD/svg11.dtd">
<svg version="1.1" id="Capa_1" xmlns="http://www.w3.org/2000/svg" xmlns:xlink="http://www.w3.org/1999/xlink" x="0px" y="0px"
	 viewBox="0 0 325 325" style="enable-background:new 0 0 325 325;" xml:space="preserve">
<g>
	<path d="M238.036,126.255l-20.5-49.068c-0.062-0.148-0.133-0.289-0.205-0.429c0.111-0.676,0.169-1.357,0.169-2.032v-23.87
		c0-5.526-4.077-9.855-9.281-9.855H186.5V8.748c0-4.987-3.936-8.748-9.156-8.748h-29.689c-5.219,0-9.154,3.761-9.154,8.748V41
		h-21.722c-5.203,0-9.278,4.329-9.278,9.855v23.87c0,0.675,0.058,1.356,0.169,2.032c-0.072,0.14-0.144,0.28-0.205,0.429
		l-20.5,49.068c-0.307,0.732-0.464,1.519-0.464,2.313V319c0,3.314,2.687,6,6,6h140c3.314,0,6-2.686,6-6V128.567
		C238.5,127.773,238.343,126.987,238.036,126.255z M150.5,12h24v29h-24V12z M119.5,53h86v21h-86V53z M116.786,86h91.428l15.457,37
		H101.329L116.786,86z M98.5,313V135h128v178H98.5z"/>
	<path d="M162.5,20.753c-2.828,0-5.115,2.293-5.115,5.116c0,2.824,2.287,5.112,5.115,5.112c2.825,0,5.113-2.288,5.113-5.112
		C167.613,23.046,165.325,20.753,162.5,20.753z"/>
</g>
<g>
</g>
<g>
</g>
<g>
</g>
<g>
</g>
<g>
</g>
<g>
</g>
<g>
</g>
<g>
</g>
<g>
</g>
<g>
</g>
<g>
</g>
<g>
</g>
<g>
</g>
<g>
</g>
<g>
</g>
</svg>
