<?xml version="1.0" encoding="iso-8859-1"?>
<!-- Generator: Adobe Illustrator 18.0.0, SVG Export Plug-In . SVG Version: 6.00 Build 0)  -->
<!DOCTYPE svg PUBLIC "-//W3C//DTD SVG 1.1//EN" "http://www.w3.org/Graphics/SVG/1.1/DTD/svg11.dtd">
<svg version="1.1" id="Capa_1" xmlns="http://www.w3.org/2000/svg" xmlns:xlink="http://www.w3.org/1999/xlink" x="0px" y="0px"
	 viewBox="0 0 325 325" style="enable-background:new 0 0 325 325;" xml:space="preserve">
<g>
	<path d="M319,55.26c3.314,0,6-2.687,6-6V6c0-3.313-2.686-6-6-6h-43.26c-3.313,0-6,2.687-6,6v15.63h-79.61V6c0-3.313-2.686-6-6-6
		h-43.26c-3.314,0-6,2.687-6,6v15.63H55.26V6c0-3.313-2.687-6-6-6H6C2.687,0,0,2.687,0,6v43.26c0,3.313,2.687,6,6,6h15.63v79.611H6
		c-3.313,0-6,2.687-6,6v43.259c0,3.314,2.687,6,6,6h15.63v79.61H6c-3.313,0-6,2.687-6,6V319c0,3.314,2.687,6,6,6h43.26
		c3.313,0,6-2.686,6-6v-15.63h79.61V319c0,3.314,2.686,6,6,6h43.26c3.314,0,6-2.686,6-6v-15.63h79.61V319c0,3.314,2.687,6,6,6H319
		c3.314,0,6-2.686,6-6v-43.26c0-3.313-2.686-6-6-6h-15.63v-79.61H319c3.314,0,6-2.686,6-6v-43.259c0-3.313-2.686-6-6-6h-15.63V55.26
		H319z M281.74,12H313v31.26h-31.26V12z M146.87,12h31.26v31.26h-31.26V12z M12,12h31.26v31.26H12V12z M12,146.871h31.26v31.259H12
		V146.871z M43.26,313H12v-31.26h15.61c0.007,0,0.013,0.001,0.02,0.001c0.007,0,0.013-0.001,0.02-0.001h15.61V313z M178.13,313
		h-31.26v-31.26h31.26V313z M313,313h-31.26v-31.26h15.61c0.007,0,0.013,0.001,0.02,0.001c0.007,0,0.013-0.001,0.02-0.001H313V313z
		 M313,178.13h-31.26v-31.259H313V178.13z M291.37,134.871h-15.63c-3.313,0-6,2.687-6,6v43.259c0,3.314,2.687,6,6,6h15.63v79.61
		h-15.63c-3.313,0-6,2.687-6,6v15.63h-79.61v-15.63c0-3.313-2.686-6-6-6h-43.26c-3.314,0-6,2.687-6,6v15.63H55.26v-15.63
		c0-3.313-2.687-6-6-6H33.63v-79.61h15.63c3.313,0,6-2.686,6-6v-43.259c0-3.313-2.687-6-6-6H33.63V55.26h15.63c3.313,0,6-2.687,6-6
		V33.63h79.61v15.63c0,3.313,2.686,6,6,6h43.26c3.314,0,6-2.687,6-6V33.63h79.61v15.63c0,3.313,2.687,6,6,6h15.63V134.871z"/>
	<circle cx="162.5" cy="162.5" r="13.283"/>
</g>
<g>
</g>
<g>
</g>
<g>
</g>
<g>
</g>
<g>
</g>
<g>
</g>
<g>
</g>
<g>
</g>
<g>
</g>
<g>
</g>
<g>
</g>
<g>
</g>
<g>
</g>
<g>
</g>
<g>
</g>
</svg>
