<?xml version="1.0" encoding="iso-8859-1"?>
<!-- Generator: Adobe Illustrator 18.0.0, SVG Export Plug-In . SVG Version: 6.00 Build 0)  -->
<!DOCTYPE svg PUBLIC "-//W3C//DTD SVG 1.1//EN" "http://www.w3.org/Graphics/SVG/1.1/DTD/svg11.dtd">
<svg version="1.1" id="Capa_1" xmlns="http://www.w3.org/2000/svg" xmlns:xlink="http://www.w3.org/1999/xlink" x="0px" y="0px"
	 viewBox="0 0 325 325" style="enable-background:new 0 0 325 325;" xml:space="preserve">
<g>
	<path d="M312.651,41H12.348C5.539,41,0,46.425,0,53.092V271.91C0,278.576,5.539,284,12.348,284h300.304
		c6.809,0,12.349-5.424,12.349-12.09V53.092C325,46.425,319.46,41,312.651,41z M312.651,272H12.348
		c-0.227,0-0.327-0.102-0.346-0.102c-0.001,0-0.001,0.001-0.001,0.001L11.987,53.144C11.988,53.143,12.084,53,12.348,53h300.304
		c0.246,0,0.336,0.106,0.349,0.103l0.013,218.753C313.013,271.855,312.915,272,312.651,272z"/>
	<path d="M285.675,156.5H39.325c-3.313,0-6,2.686-6,6s2.687,6,6,6h246.35c3.314,0,6-2.686,6-6S288.988,156.5,285.675,156.5z"/>
	<path d="M67.326,135.5c14.775,0,26.797-12.021,26.797-26.797S82.102,81.906,67.326,81.906S40.53,93.928,40.53,108.703
		S52.551,135.5,67.326,135.5z M67.326,93.906c8.159,0,14.797,6.638,14.797,14.797S75.485,123.5,67.326,123.5
		c-8.158,0-14.796-6.638-14.796-14.797S59.168,93.906,67.326,93.906z"/>
	<path d="M130.776,135.5c14.774,0,26.795-12.021,26.795-26.797s-12.021-26.797-26.795-26.797c-14.775,0-26.797,12.021-26.797,26.797
		S116.001,135.5,130.776,135.5z M130.776,93.906c8.158,0,14.795,6.638,14.795,14.797s-6.637,14.797-14.795,14.797
		c-8.159,0-14.797-6.638-14.797-14.797S122.617,93.906,130.776,93.906z"/>
	<path d="M194.224,135.5c14.775,0,26.797-12.021,26.797-26.797s-12.021-26.797-26.797-26.797c-14.775,0-26.796,12.021-26.796,26.797
		S179.448,135.5,194.224,135.5z M194.224,93.906c8.159,0,14.797,6.638,14.797,14.797s-6.638,14.797-14.797,14.797
		c-8.158,0-14.796-6.638-14.796-14.797S186.065,93.906,194.224,93.906z"/>
	<path d="M257.673,135.5c14.775,0,26.796-12.021,26.796-26.797s-12.021-26.797-26.796-26.797c-14.775,0-26.795,12.021-26.795,26.797
		S242.898,135.5,257.673,135.5z M257.673,93.906c8.158,0,14.796,6.638,14.796,14.797s-6.638,14.797-14.796,14.797
		c-8.158,0-14.795-6.638-14.795-14.797S249.515,93.906,257.673,93.906z"/>
	<path d="M67.326,189.5c-14.775,0-26.796,12.02-26.796,26.795c0,14.774,12.021,26.795,26.796,26.795s26.797-12.02,26.797-26.795
		C94.123,201.52,82.102,189.5,67.326,189.5z M67.326,231.09c-8.158,0-14.796-6.637-14.796-14.795
		c0-8.158,6.638-14.795,14.796-14.795c8.159,0,14.797,6.637,14.797,14.795C82.123,224.453,75.485,231.09,67.326,231.09z"/>
	<path d="M130.776,189.5c-14.775,0-26.797,12.02-26.797,26.795c0,14.774,12.021,26.795,26.797,26.795
		c14.774,0,26.795-12.02,26.795-26.795C157.571,201.52,145.551,189.5,130.776,189.5z M130.776,231.09
		c-8.159,0-14.797-6.637-14.797-14.795c0-8.158,6.638-14.795,14.797-14.795c8.158,0,14.795,6.637,14.795,14.795
		C145.571,224.453,138.935,231.09,130.776,231.09z"/>
	<path d="M194.224,189.5c-14.775,0-26.796,12.02-26.796,26.795c0,14.774,12.02,26.795,26.796,26.795
		c14.775,0,26.797-12.02,26.797-26.795C221.02,201.52,208.999,189.5,194.224,189.5z M194.224,231.09
		c-8.158,0-14.796-6.637-14.796-14.795c0-8.158,6.638-14.795,14.796-14.795c8.159,0,14.797,6.637,14.797,14.795
		C209.02,224.453,202.383,231.09,194.224,231.09z"/>
	<path d="M257.673,189.5c-14.775,0-26.795,12.02-26.795,26.795c0,14.774,12.021,26.795,26.795,26.795
		c14.775,0,26.796-12.02,26.796-26.795C284.469,201.52,272.448,189.5,257.673,189.5z M257.673,231.09
		c-8.158,0-14.795-6.637-14.795-14.795c0-8.158,6.637-14.795,14.795-14.795c8.158,0,14.796,6.637,14.796,14.795
		C272.469,224.453,265.831,231.09,257.673,231.09z"/>
</g>
<g>
</g>
<g>
</g>
<g>
</g>
<g>
</g>
<g>
</g>
<g>
</g>
<g>
</g>
<g>
</g>
<g>
</g>
<g>
</g>
<g>
</g>
<g>
</g>
<g>
</g>
<g>
</g>
<g>
</g>
</svg>
